<?xml version="1.0" encoding="UTF-8" standalone="no"?>
<!-- Generator: Adobe Illustrator 15.0.2, SVG Export Plug-In . SVG Version: 6.00 Build 0)  -->

<svg
   xmlns:dc="http://purl.org/dc/elements/1.1/"
   xmlns:cc="http://creativecommons.org/ns#"
   xmlns:rdf="http://www.w3.org/1999/02/22-rdf-syntax-ns#"
   xmlns:svg="http://www.w3.org/2000/svg"
   xmlns="http://www.w3.org/2000/svg"
   xmlns:sodipodi="http://sodipodi.sourceforge.net/DTD/sodipodi-0.dtd"
   xmlns:inkscape="http://www.inkscape.org/namespaces/inkscape"
   version="1.1"
   id="Ebene_1"
   x="0px"
   y="0px"
   width="100px"
   height="100px"
   viewBox="0 0 100 100"
   enable-background="new 0 0 100 100"
   xml:space="preserve"
   inkscape:version="0.48.2 r9819"
   sodipodi:docname="azubi.svg"><metadata
   id="metadata3076"><rdf:RDF><cc:Work
       rdf:about=""><dc:format>image/svg+xml</dc:format><dc:type
         rdf:resource="http://purl.org/dc/dcmitype/StillImage" /><dc:title /></cc:Work></rdf:RDF></metadata><defs
   id="defs3074" /><sodipodi:namedview
   pagecolor="#ffffff"
   bordercolor="#666666"
   borderopacity="1"
   objecttolerance="10"
   gridtolerance="10"
   guidetolerance="10"
   inkscape:pageopacity="0"
   inkscape:pageshadow="2"
   inkscape:window-width="640"
   inkscape:window-height="480"
   id="namedview3072"
   showgrid="false"
   inkscape:zoom="2.36"
   inkscape:cx="56.355932"
   inkscape:cy="50"
   inkscape:window-x="0"
   inkscape:window-y="0"
   inkscape:window-maximized="0"
   inkscape:current-layer="Ebene_1" />
<circle
   fill="#B2B2B2"
   cx="50"
   cy="50"
   r="50"
   id="circle3068" />
<path
   d="m 82.489086,68.831854 c -1.307749,-1.287552 -17.154737,-7.417311 -20.03027,-8.573582 -2.857861,-1.1386 -3.998985,-4.284266 -3.998985,-4.284266 0,0 -1.287552,0.71194 -1.287552,-1.287552 0,-2.002018 1.287552,1.287552 2.577628,-6.432712 0,0 3.569802,-1.00227 2.860386,-9.290571 l -0.853319,0.0025 c 0,0 2.14592,-8.863912 0,-11.86315 -2.156019,-2.999239 -2.999239,-5.001256 -7.730361,-6.432711 -4.7185,-1.431456 -2.99924,-1.146174 -6.430187,-0.999747 -3.430947,0.143904 -6.291333,2.002018 -6.291333,2.99924 0,0 -2.143395,0.143902 -2.999238,1.00227 -0.858368,0.858368 -2.287298,4.857354 -2.287298,5.8571 0,0.999746 0.714464,7.722787 1.42893,9.149193 l -0.850794,0.282756 c -0.714466,8.288301 2.857861,9.293096 2.857861,9.293096 1.285027,7.720263 2.572579,4.430694 2.572579,6.432711 0,1.999493 -1.287552,1.287552 -1.287552,1.287552 0,0 -1.141125,3.145666 -3.998986,4.284266 -2.85786,1.14365 -18.72252,7.288555 -20.012597,8.573582 -1.290076,1.315323 -1.143649,7.311276 -1.143649,7.311276 h 68.048386 c 0.0025,0 0.15905,-6.001002 -1.143649,-7.311276 z M 52.433583,43.282782 c -1.004796,-0.633678 -1.976772,-3.057305 -1.976772,-4.140363 0,-0.335774 0,-0.595809 0,-0.595809 -0.265083,-0.267608 -1.449127,-0.242362 -1.69149,0 0,0 0,0.262559 0,0.595809 0,1.083058 -0.971975,3.506685 -1.97677,4.140363 -1.007321,0.633678 -4.06715,0.598333 -5.261292,-0.595808 -1.194141,-1.194142 -1.322896,-4.19843 -1.623325,-4.49381 -0.297904,-0.300428 -0.467053,-0.467052 -0.467053,-0.467052 l 0.07322,-1.04519 c 0,0 2.125723,-0.522594 4.289315,-0.522594 2.163593,0 4.551876,1.267355 4.551876,1.267355 0.583185,-0.186821 1.979295,-0.209544 2.514513,0 0,0 2.385758,-1.267355 4.551874,-1.267355 2.166118,0 4.289316,0.522594 4.289316,0.522594 l 0.07321,1.04519 c 0,0 -0.166625,0.166624 -0.467054,0.467052 -0.297904,0.297905 -0.426659,3.302193 -1.623325,4.49381 -1.189092,1.194141 -4.246397,1.229486 -5.256241,0.595808 z"
   id="path3070"
   inkscape:connector-curvature="0" />
</svg>