<?xml version="1.0" encoding="UTF-8" standalone="no"?>
<!-- Generator: Adobe Illustrator 15.0.2, SVG Export Plug-In . SVG Version: 6.00 Build 0)  -->

<svg
   xmlns:dc="http://purl.org/dc/elements/1.1/"
   xmlns:cc="http://creativecommons.org/ns#"
   xmlns:rdf="http://www.w3.org/1999/02/22-rdf-syntax-ns#"
   xmlns:svg="http://www.w3.org/2000/svg"
   xmlns="http://www.w3.org/2000/svg"
   xmlns:sodipodi="http://sodipodi.sourceforge.net/DTD/sodipodi-0.dtd"
   xmlns:inkscape="http://www.inkscape.org/namespaces/inkscape"
   version="1.1"
   id="Ebene_1"
   x="0px"
   y="0px"
   width="100px"
   height="100px"
   viewBox="0 0 100 100"
   enable-background="new 0 0 100 100"
   xml:space="preserve"
   inkscape:version="0.48.2 r9819"
   sodipodi:docname="education.svg"><metadata
   id="metadata3076"><rdf:RDF><cc:Work
       rdf:about=""><dc:format>image/svg+xml</dc:format><dc:type
         rdf:resource="http://purl.org/dc/dcmitype/StillImage" /></cc:Work></rdf:RDF></metadata><defs
   id="defs3074" /><sodipodi:namedview
   pagecolor="#ffffff"
   bordercolor="#666666"
   borderopacity="1"
   objecttolerance="10"
   gridtolerance="10"
   guidetolerance="10"
   inkscape:pageopacity="0"
   inkscape:pageshadow="2"
   inkscape:window-width="640"
   inkscape:window-height="480"
   id="namedview3072"
   showgrid="false"
   inkscape:zoom="2.36"
   inkscape:cx="50"
   inkscape:cy="50"
   inkscape:window-x="0"
   inkscape:window-y="0"
   inkscape:window-maximized="0"
   inkscape:current-layer="Ebene_1" />
<circle
   fill="#B2B2B2"
   cx="50"
   cy="50"
   r="50"
   id="circle3068" />
<path
   d="M 68.694784,72.213831 59.474933,50.694445 c -0.90224,-2.108883 -1.64268,-5.706873 -1.64268,-7.999496 0,-2.292622 1.406836,-4.171147 3.126303,-4.171147 1.719466,0 3.129045,-1.406836 3.129045,-3.126303 0,-1.719466 -1.878524,-3.126302 -4.171147,-3.126302 H 41.158636 c -2.292623,0 -4.168404,1.406836 -4.168404,3.126302 0,1.719467 1.406836,3.126303 3.126304,3.126303 1.719466,0 3.126302,1.878525 3.126302,4.171147 0,2.292623 -0.737697,5.890613 -1.64268,7.999496 l -9.219852,21.519386 c -0.902239,2.106141 -1.64268,4.768984 -1.64268,5.915295 0,1.146311 0.937891,3.024835 2.084202,4.171147 1.146311,1.146311 3.959984,2.084202 6.252606,2.084202 h 22.92348 c 2.292622,0 5.106295,-0.937891 6.252606,-2.084202 1.146312,-1.146312 2.084202,-3.024836 2.084202,-4.171147 0,-1.146311 -0.737697,-3.809154 -1.639938,-5.915295 z M 53.504791,26.106346 c 0,1.64268 1.327307,2.969988 2.969987,2.969988 1.642682,0 2.969989,-1.327308 2.969989,-2.969988 0,-1.64268 -1.327307,-2.97273 -2.969989,-2.97273 -1.64268,0 -2.969987,1.33005 -2.969987,2.97273 z m -7.994012,0.457976 c 0.756894,0 1.371186,-0.614291 1.371186,-1.371186 0,-0.756894 -0.614292,-1.371185 -1.371186,-1.371185 -0.756894,0 -1.371186,0.614291 -1.371186,1.371185 0,0.756895 0.614292,1.371186 1.371186,1.371186 z m 5.257126,-6.855927 c 2.396832,0 4.341173,-1.944342 4.341173,-4.341175 0,-2.399574 -1.944341,-4.343915 -4.341173,-4.343915 -2.399575,0 -4.343916,1.944341 -4.343916,4.343915 0,2.396833 1.944341,4.341175 4.343916,4.341175 z"
   id="path3070"
   inkscape:connector-curvature="0" />
</svg>