<?xml version="1.0" encoding="UTF-8" standalone="no"?>
<!-- Generator: Adobe Illustrator 15.0.2, SVG Export Plug-In . SVG Version: 6.00 Build 0)  -->

<svg
   xmlns:dc="http://purl.org/dc/elements/1.1/"
   xmlns:cc="http://creativecommons.org/ns#"
   xmlns:rdf="http://www.w3.org/1999/02/22-rdf-syntax-ns#"
   xmlns:svg="http://www.w3.org/2000/svg"
   xmlns="http://www.w3.org/2000/svg"
   xmlns:sodipodi="http://sodipodi.sourceforge.net/DTD/sodipodi-0.dtd"
   xmlns:inkscape="http://www.inkscape.org/namespaces/inkscape"
   version="1.1"
   id="Ebene_1"
   x="0px"
   y="0px"
   width="100px"
   height="100px"
   viewBox="0 0 100 100"
   enable-background="new 0 0 100 100"
   xml:space="preserve"
   inkscape:version="0.48.2 r9819"
   sodipodi:docname="education.svg"><metadata
   id="metadata3076"><rdf:RDF><cc:Work
       rdf:about=""><dc:format>image/svg+xml</dc:format><dc:type
         rdf:resource="http://purl.org/dc/dcmitype/StillImage" /><dc:title></dc:title></cc:Work></rdf:RDF></metadata><defs
   id="defs3074" /><sodipodi:namedview
   pagecolor="#ffffff"
   bordercolor="#666666"
   borderopacity="1"
   objecttolerance="10"
   gridtolerance="10"
   guidetolerance="10"
   inkscape:pageopacity="0"
   inkscape:pageshadow="2"
   inkscape:window-width="640"
   inkscape:window-height="480"
   id="namedview3072"
   showgrid="false"
   inkscape:zoom="2.36"
   inkscape:cx="50"
   inkscape:cy="50"
   inkscape:window-x="0"
   inkscape:window-y="0"
   inkscape:window-maximized="0"
   inkscape:current-layer="Ebene_1" />
<circle
   fill="#B2B2B2"
   cx="50"
   cy="50"
   r="50"
   id="circle3068" />
<path
   d="M28.523,23.813c-0.518-0.51-6.795-2.938-7.934-3.396c-1.132-0.451-1.584-1.697-1.584-1.697s-0.51,0.282-0.51-0.51c0-0.793,0.51,0.51,1.021-2.548c0,0,1.414-0.397,1.133-3.68l-0.338,0.001c0,0,0.85-3.511,0-4.699c-0.854-1.188-1.188-1.981-3.062-2.548c-1.869-0.567-1.188-0.454-2.547-0.396c-1.359,0.057-2.492,0.793-2.492,1.188c0,0-0.849,0.057-1.188,0.397c-0.34,0.34-0.906,1.924-0.906,2.32s0.283,3.059,0.566,3.624l-0.337,0.112c-0.283,3.283,1.132,3.681,1.132,3.681c0.509,3.058,1.019,1.755,1.019,2.548c0,0.792-0.51,0.51-0.51,0.51s-0.452,1.246-1.584,1.697c-1.132,0.453-7.416,2.887-7.927,3.396c-0.511,0.521-0.453,2.896-0.453,2.896h12.036l0.878-3.459l-0.781-0.781l1.344-1.344l1.344,1.344l-0.781,0.781l0.879,3.459h12.035C28.977,26.709,29.039,24.332,28.523,23.813z"
   id="path3070"
   inkscape:connector-curvature="0" />
</svg>