<?xml version="1.0" encoding="UTF-8" standalone="no"?>
<!-- Generator: Adobe Illustrator 15.0.2, SVG Export Plug-In . SVG Version: 6.00 Build 0)  -->

<svg
   xmlns:dc="http://purl.org/dc/elements/1.1/"
   xmlns:cc="http://creativecommons.org/ns#"
   xmlns:rdf="http://www.w3.org/1999/02/22-rdf-syntax-ns#"
   xmlns:svg="http://www.w3.org/2000/svg"
   xmlns="http://www.w3.org/2000/svg"
   xmlns:sodipodi="http://sodipodi.sourceforge.net/DTD/sodipodi-0.dtd"
   xmlns:inkscape="http://www.inkscape.org/namespaces/inkscape"
   version="1.1"
   id="Ebene_1"
   x="0px"
   y="0px"
   width="100px"
   height="100px"
   viewBox="0 0 100 100"
   enable-background="new 0 0 100 100"
   xml:space="preserve"
   inkscape:version="0.48.2 r9819"
   sodipodi:docname="fanpages.svg"><metadata
   id="metadata3076"><rdf:RDF><cc:Work
       rdf:about=""><dc:format>image/svg+xml</dc:format><dc:type
         rdf:resource="http://purl.org/dc/dcmitype/StillImage" /><dc:title></dc:title></cc:Work></rdf:RDF></metadata><defs
   id="defs3074" /><sodipodi:namedview
   pagecolor="#ffffff"
   bordercolor="#666666"
   borderopacity="1"
   objecttolerance="10"
   gridtolerance="10"
   guidetolerance="10"
   inkscape:pageopacity="0"
   inkscape:pageshadow="2"
   inkscape:window-width="640"
   inkscape:window-height="480"
   id="namedview3072"
   showgrid="false"
   inkscape:zoom="2.36"
   inkscape:cx="56.355932"
   inkscape:cy="50"
   inkscape:window-x="0"
   inkscape:window-y="0"
   inkscape:window-maximized="0"
   inkscape:current-layer="Ebene_1" />
<circle
   fill="#B2B2B2"
   cx="50"
   cy="50"
   r="50"
   id="circle3068" />
<path
   d="m 82.079686,68.218151 c -1.291465,-1.27152 -16.941134,-7.324953 -19.780862,-8.466828 -2.822276,-1.124422 -3.949192,-4.23092 -3.949192,-4.23092 0,0 -1.27152,0.703076 -1.27152,-1.27152 0,-1.977089 1.27152,1.27152 2.545533,-6.352614 0,0 3.525352,-0.989791 2.824769,-9.17489 l -0.842693,0.0025 c 0,0 2.1192,-8.753543 0,-11.715437 -2.129173,-2.961893 -2.961894,-4.938982 -7.634107,-6.352614 -4.659747,-1.413631 -2.961894,-1.131902 -6.350121,-0.987297 -3.388226,0.142111 -6.212995,1.977089 -6.212995,2.961893 0,0 -2.116707,0.142111 -2.961894,0.989791 -0.84768,0.84768 -2.258818,4.796872 -2.258818,5.78417 0,0.987298 0.705569,7.626627 1.411138,9.035272 l -0.840201,0.279235 c -0.705569,8.185099 2.822276,9.177383 2.822276,9.177383 1.269027,7.624134 2.540547,4.375525 2.540547,6.352614 0,1.974596 -1.27152,1.27152 -1.27152,1.27152 0,0 -1.126916,3.106498 -3.949192,4.23092 -2.822275,1.129409 -18.489397,7.197801 -19.76341,8.466828 -1.274013,1.298945 -1.129409,7.220239 -1.129409,7.220239 h 30.007873 l 2.189009,-8.623898 -1.947171,-1.94717 3.350829,-3.35083 3.350829,3.35083 -1.94717,1.94717 2.191502,8.623898 H 83.2091 c 0.002,0 0.15707,-5.926281 -1.129414,-7.220239 z"
   id="path3070"
   inkscape:connector-curvature="0" />
</svg>