<?xml version="1.0" encoding="UTF-8" standalone="no"?>
<!-- Generator: Adobe Illustrator 15.0.2, SVG Export Plug-In . SVG Version: 6.00 Build 0)  -->

<svg
   xmlns:dc="http://purl.org/dc/elements/1.1/"
   xmlns:cc="http://creativecommons.org/ns#"
   xmlns:rdf="http://www.w3.org/1999/02/22-rdf-syntax-ns#"
   xmlns:svg="http://www.w3.org/2000/svg"
   xmlns="http://www.w3.org/2000/svg"
   xmlns:sodipodi="http://sodipodi.sourceforge.net/DTD/sodipodi-0.dtd"
   xmlns:inkscape="http://www.inkscape.org/namespaces/inkscape"
   version="1.1"
   id="Ebene_1"
   x="0px"
   y="0px"
   width="100px"
   height="100px"
   viewBox="0 0 100 100"
   enable-background="new 0 0 100 100"
   xml:space="preserve"
   inkscape:version="0.48.2 r9819"
   sodipodi:docname="nore.svg"><metadata
   id="metadata3005"><rdf:RDF><cc:Work
       rdf:about=""><dc:format>image/svg+xml</dc:format><dc:type
         rdf:resource="http://purl.org/dc/dcmitype/StillImage" /><dc:title /></cc:Work></rdf:RDF></metadata><defs
   id="defs3003" /><sodipodi:namedview
   pagecolor="#ffffff"
   bordercolor="#666666"
   borderopacity="1"
   objecttolerance="10"
   gridtolerance="10"
   guidetolerance="10"
   inkscape:pageopacity="0"
   inkscape:pageshadow="2"
   inkscape:window-width="640"
   inkscape:window-height="480"
   id="namedview3001"
   showgrid="false"
   inkscape:zoom="2.36"
   inkscape:cx="50"
   inkscape:cy="50"
   inkscape:window-x="593"
   inkscape:window-y="209"
   inkscape:window-maximized="0"
   inkscape:current-layer="Ebene_1" />
<circle
   cx="50"
   cy="50"
   r="50"
   id="circle2997"
   fill="#B2B2B2" />
<path
   d="M 69.916324,32.677704 C 69.725875,24.554712 63.08299,18.02775 54.912386,18.02361 c -5.460871,0.0021 -10.230334,2.922953 -12.851055,7.280471 -1.231697,-0.676917 -2.649701,-1.070232 -4.16086,-1.070232 -4.71771,0.0041 -8.555638,3.738564 -8.727455,8.416943 -4.953701,1.627083 -8.539079,6.261992 -8.543219,11.770473 0,6.856104 5.562304,12.420478 12.420478,12.420478 v -0.0041 h 10.911389 l -4.483791,7.034131 4.092547,-0.850803 -5.473291,18.44648 18.916387,-20.911945 -4.425829,0.469908 4.485862,-4.187771 h 8.837169 c 6.856105,0 12.420478,-5.564374 12.420478,-12.420478 -0.0041,-5.4588 -3.527415,-10.075078 -8.414872,-11.739421 z M 65.910718,52.701583 H 33.048205 c -4.572806,-0.01243 -8.274109,-3.709581 -8.282389,-8.282388 -0.0041,-4.102898 3.001616,-7.489548 6.934766,-8.137483 0.548572,-0.08901 1.039181,-0.395384 1.360042,-0.857013 0.320864,-0.461628 0.438858,-1.028829 0.337424,-1.57947 -0.05795,-0.306372 -0.09316,-0.596184 -0.09316,-0.877714 0.0083,-2.535848 2.059728,-4.587296 4.595576,-4.591437 1.339342,0 2.519286,0.575483 3.38044,1.513228 0.48233,0.532011 1.215137,0.77628 1.918964,0.639655 0.707968,-0.136625 1.29587,-0.635514 1.548419,-1.30415 1.550491,-4.123599 5.510553,-7.063111 10.166161,-7.058972 6.001162,0.0083 10.855497,4.864687 10.869989,10.865848 0,0.333283 -0.01863,0.674846 -0.05589,1.02883 -0.101429,1.070231 0.631375,2.036958 1.687115,2.233616 3.850348,0.712107 6.777441,4.069776 6.771231,8.120922 -0.0083,4.574876 -3.703372,8.274108 -8.276178,8.286528 z"
   id="path2999"
   inkscape:connector-curvature="0"
   style="fill:#231f20" />
</svg>