<?xml version="1.0" encoding="UTF-8" standalone="no"?>
<!-- Generator: Adobe Illustrator 15.0.2, SVG Export Plug-In . SVG Version: 6.00 Build 0)  -->

<svg
   xmlns:dc="http://purl.org/dc/elements/1.1/"
   xmlns:cc="http://creativecommons.org/ns#"
   xmlns:rdf="http://www.w3.org/1999/02/22-rdf-syntax-ns#"
   xmlns:svg="http://www.w3.org/2000/svg"
   xmlns="http://www.w3.org/2000/svg"
   xmlns:sodipodi="http://sodipodi.sourceforge.net/DTD/sodipodi-0.dtd"
   xmlns:inkscape="http://www.inkscape.org/namespaces/inkscape"
   version="1.1"
   id="Ebene_1"
   x="0px"
   y="0px"
   width="100px"
   height="100px"
   viewBox="0 0 100 100"
   enable-background="new 0 0 100 100"
   xml:space="preserve"
   inkscape:version="0.48.2 r9819"
   sodipodi:docname="re.svg"><metadata
   id="metadata3005"><rdf:RDF><cc:Work
       rdf:about=""><dc:format>image/svg+xml</dc:format><dc:type
         rdf:resource="http://purl.org/dc/dcmitype/StillImage" /><dc:title /></cc:Work></rdf:RDF></metadata><defs
   id="defs3003" /><sodipodi:namedview
   pagecolor="#ffffff"
   bordercolor="#666666"
   borderopacity="1"
   objecttolerance="10"
   gridtolerance="10"
   guidetolerance="10"
   inkscape:pageopacity="0"
   inkscape:pageshadow="2"
   inkscape:window-width="640"
   inkscape:window-height="480"
   id="namedview3001"
   showgrid="false"
   inkscape:zoom="2.36"
   inkscape:cx="50"
   inkscape:cy="50"
   inkscape:window-x="593"
   inkscape:window-y="209"
   inkscape:window-maximized="0"
   inkscape:current-layer="Ebene_1" />
<circle
   fill="#B2B2B2"
   cx="50"
   cy="50"
   r="50"
   id="circle2997" />
<path
   d="m 69.647629,18.685548 -1.005688,-5.755327 -3.958032,4.29907 -5.78271,-0.821478 2.865217,5.090676 -2.568987,5.247504 5.730434,-1.152559 4.197007,4.065074 0.674608,-5.805114 5.162867,-2.735772 -5.314716,-2.432074 z m 7.901129,33.72791 -0.453058,-3.11166 -2.195588,2.252842 -3.099214,-0.532716 1.463725,2.783069 -1.463725,2.783069 3.099214,-0.532716 2.195588,2.252842 0.453058,-3.111661 2.820409,-1.394024 -2.820409,-1.389045 z m -53.015227,-26.20267 2.359884,-0.92603 2.100993,1.416428 -0.154339,-2.529158 1.996442,-1.560809 -2.451989,-0.637268 -0.868775,-2.382287 -1.361663,2.138333 -2.534136,0.08962 1.610595,1.956612 -0.697012,2.434563 z m 13.738604,7.052267 2.541604,-2.728304 3.686695,0.545163 -1.809742,-3.26102 1.660382,-3.338189 -3.659312,0.714437 -2.661092,-2.608816 -0.453058,3.701631 -3.305828,1.725105 3.380508,1.573255 0.619843,3.676738 z m 16.914986,5.516352 c -1.463725,-0.916073 -2.917493,-1.538405 -4.211944,-1.814721 -1.224749,-0.22155 -2.586412,-0.37091 -3.547293,0.931009 L 18.663695,83.754102 H 35.292408 L 59.361724,45.378616 c 0.754267,-1.433853 0.02987,-2.591391 -0.704479,-3.602058 -0.809032,-1.03805 -2.006399,-2.078589 -3.470124,-2.997151 z M 46.173263,61.718568 C 45.540973,60.732794 44.33116,59.585213 42.755415,58.59695 41.182159,57.611176 39.62384,57.018716 38.458834,56.879313 L 49.464155,39.32457 c 0.159317,-0.03236 0.652204,-0.05228 1.351705,0.164295 0.861308,0.229019 1.954123,0.709459 3.049427,1.399003 1.254622,0.77916 2.260311,1.685275 2.820409,2.414648 0.281295,0.360953 0.443101,0.674608 0.48542,0.833925 0.005,0.01494 0.01,0.02738 0.01,0.03734 l -11.00781,17.544787 z"
   id="path2999"
   inkscape:connector-curvature="0"
   style="fill:#231f20" />
</svg>