<?xml version="1.0" encoding="UTF-8" standalone="no"?>
<!-- Generator: Adobe Illustrator 15.0.2, SVG Export Plug-In . SVG Version: 6.00 Build 0)  -->

<svg
   xmlns:dc="http://purl.org/dc/elements/1.1/"
   xmlns:cc="http://creativecommons.org/ns#"
   xmlns:rdf="http://www.w3.org/1999/02/22-rdf-syntax-ns#"
   xmlns:svg="http://www.w3.org/2000/svg"
   xmlns="http://www.w3.org/2000/svg"
   xmlns:sodipodi="http://sodipodi.sourceforge.net/DTD/sodipodi-0.dtd"
   xmlns:inkscape="http://www.inkscape.org/namespaces/inkscape"
   version="1.1"
   id="Ebene_1"
   x="0px"
   y="0px"
   width="100px"
   height="100px"
   viewBox="0 0 100 100"
   enable-background="new 0 0 100 100"
   xml:space="preserve"
   inkscape:version="0.48.2 r9819"
   sodipodi:docname="team.svg"><metadata
   id="metadata3076"><rdf:RDF><cc:Work
       rdf:about=""><dc:format>image/svg+xml</dc:format><dc:type
         rdf:resource="http://purl.org/dc/dcmitype/StillImage" /><dc:title /></cc:Work></rdf:RDF></metadata><defs
   id="defs3074" /><sodipodi:namedview
   pagecolor="#ffffff"
   bordercolor="#666666"
   borderopacity="1"
   objecttolerance="10"
   gridtolerance="10"
   guidetolerance="10"
   inkscape:pageopacity="0"
   inkscape:pageshadow="2"
   inkscape:window-width="1920"
   inkscape:window-height="1017"
   id="namedview3072"
   showgrid="false"
   inkscape:zoom="2.36"
   inkscape:cx="3.3898305"
   inkscape:cy="50"
   inkscape:window-x="-4"
   inkscape:window-y="-4"
   inkscape:window-maximized="1"
   inkscape:current-layer="Ebene_1" />
<circle
   fill="#B2B2B2"
   cx="50"
   cy="50"
   r="50"
   id="circle3068" />
<path
   d="m 63.414652,61.58867 c 2.832746,-1.574517 2.465667,-7.644028 -0.817271,-13.561166 -1.410602,-2.548779 -3.137492,-4.612736 -4.869,-6.055659 -2.020091,1.479861 -4.48114,2.380245 -7.161514,2.380245 -2.687299,0 -5.150658,-0.902692 -7.166133,-2.380245 -1.731507,1.442923 -3.458398,3.50688 -4.873616,6.055659 -3.282938,5.917138 -3.643092,11.986649 -0.808036,13.561166 1.267463,0.720307 2.601877,0.180078 3.97785,-1.145103 -0.242411,1.343649 -0.383242,2.800425 -0.383242,4.324151 0,6.782893 2.629584,12.26369 5.870965,12.26369 1.953141,0 2.920476,-1.997005 3.384521,-5.051384 0.461734,3.033601 1.431379,5.051384 3.372976,5.051384 3.222913,0 5.875582,-5.483107 5.875582,-12.26369 0,-1.523726 -0.143138,-2.980502 -0.387857,-4.324151 1.382897,1.325181 2.715003,1.874646 3.984775,1.145103 z M 50.564558,42.043414 c 5.450786,0 9.87421,-4.423425 9.87421,-9.878827 0,-5.455403 -4.423424,-9.876519 -9.87421,-9.876519 -5.455403,0 -9.881136,4.423425 -9.881136,9.878828 0,5.455403 4.425733,9.876518 9.881136,9.876518 z m 19.840768,6.26344 c 4.474215,0 8.108072,-3.631549 8.108072,-8.110382 0,-4.476523 -3.631549,-8.110381 -8.108072,-8.110381 -4.478834,0 -8.110382,3.631549 -8.110382,8.110381 0,4.478833 3.62924,8.110382 8.110382,8.110382 z m 9.881135,4.915173 c -1.158955,-2.09397 -2.576483,-3.78854 -3.998628,-4.97289 -1.657629,1.214363 -3.68003,1.95314 -5.87789,1.95314 -1.74536,0 -3.368359,-0.477896 -4.792813,-1.269772 1.145103,2.523383 1.853867,5.079089 1.98777,7.364678 0.214707,3.499954 -0.879606,6.097216 -3.06823,7.306962 -0.470971,0.270115 -0.983497,0.422488 -1.507566,0.517144 -0.129287,0.905001 -0.219325,1.84925 -0.219325,2.841981 0,5.568528 2.158612,10.068138 4.820517,10.068138 1.602221,0 2.398715,-1.63916 2.779647,-4.146383 0.376314,2.491062 1.172807,4.146383 2.768103,4.146383 2.645743,0 4.825134,-4.501919 4.825134,-10.068138 0,-1.251304 -0.120051,-2.447197 -0.320906,-3.550744 1.135869,1.089694 2.230181,1.539886 3.273704,0.939631 2.324836,-1.290551 2.024709,-6.274984 -0.669517,-11.13013 z m -49.56267,-4.915173 c 4.476524,0 8.108072,-3.631549 8.108072,-8.110382 0,-4.476523 -3.631548,-8.110381 -8.108072,-8.110381 -4.478832,0 -8.112689,3.631549 -8.112689,8.110381 0,4.478833 3.633857,8.110382 8.112689,8.110382 z m 5.852495,15.288057 c -3.677722,-2.04318 -4.014788,-8.135777 -1.055065,-14.669332 -1.429071,0.798802 -3.05207,1.276698 -4.79743,1.276698 -2.207095,0 -4.229495,-0.741085 -5.884816,-1.95314 -1.422146,1.18435 -2.837364,2.87892 -4.000937,4.97289 -2.694226,4.857455 -2.989737,9.839579 -0.66259,11.13013 1.041212,0.593329 2.135525,0.147755 3.264468,-0.939631 -0.198546,1.105855 -0.31398,2.29944 -0.31398,3.550744 0,5.568528 2.158613,10.068138 4.820517,10.068138 1.602222,0 2.398715,-1.63916 2.779647,-4.146383 0.380931,2.491062 1.175116,4.146383 2.772721,4.146383 2.645743,0 4.822825,-4.501919 4.822825,-10.068138 0,-0.997348 -0.09234,-1.941598 -0.223941,-2.846599 -0.521761,-0.09466 -1.036596,-0.244719 -1.521419,-0.52176 z"
   id="path3070"
   inkscape:connector-curvature="0" />
</svg>