<?xml version="1.0" encoding="UTF-8" standalone="no"?>
<!-- Generator: Adobe Illustrator 15.0.2, SVG Export Plug-In . SVG Version: 6.00 Build 0)  -->

<svg
   xmlns:dc="http://purl.org/dc/elements/1.1/"
   xmlns:cc="http://creativecommons.org/ns#"
   xmlns:rdf="http://www.w3.org/1999/02/22-rdf-syntax-ns#"
   xmlns:svg="http://www.w3.org/2000/svg"
   xmlns="http://www.w3.org/2000/svg"
   xmlns:sodipodi="http://sodipodi.sourceforge.net/DTD/sodipodi-0.dtd"
   xmlns:inkscape="http://www.inkscape.org/namespaces/inkscape"
   version="1.1"
   id="Ebene_1"
   x="0px"
   y="0px"
   width="100px"
   height="100px"
   viewBox="0 0 100 100"
   enable-background="new 0 0 100 100"
   xml:space="preserve"
   inkscape:version="0.48.2 r9819"
   sodipodi:docname="video.svg"><metadata
   id="metadata3076"><rdf:RDF><cc:Work
       rdf:about=""><dc:format>image/svg+xml</dc:format><dc:type
         rdf:resource="http://purl.org/dc/dcmitype/StillImage" /><dc:title></dc:title></cc:Work></rdf:RDF></metadata><defs
   id="defs3074" /><sodipodi:namedview
   pagecolor="#ffffff"
   bordercolor="#666666"
   borderopacity="1"
   objecttolerance="10"
   gridtolerance="10"
   guidetolerance="10"
   inkscape:pageopacity="0"
   inkscape:pageshadow="2"
   inkscape:window-width="791"
   inkscape:window-height="426"
   id="namedview3072"
   showgrid="false"
   inkscape:zoom="2.36"
   inkscape:cx="3.3898305"
   inkscape:cy="50"
   inkscape:window-x="88"
   inkscape:window-y="88"
   inkscape:window-maximized="0"
   inkscape:current-layer="Ebene_1" />
<circle
   cx="50"
   cy="50"
   r="50"
   id="circle3068"
   fill="#B2B2B2" />
<path
   d="m 78.512541,23.519068 v 2.715231 H 67.343851 V 23.519068 H 31.043129 v 2.715231 h -11.16869 v -2.715231 h -2.481931 v 52.741033 h 2.481931 v -2.715232 h 11.16869 v 2.715232 h 36.298242 v -2.715232 h 11.168688 v 2.715232 h 3.102414 V 23.519068 H 78.512541 z M 31.043129,70.288576 h -11.16869 v -7.756035 h 11.16869 v 7.756035 z m 0,-11.014809 h -11.16869 v -7.756035 h 11.16869 v 7.756035 z m 0,-11.012328 h -11.16869 v -7.756035 h 11.16869 v 7.756035 z m 0,-11.014811 h -11.16869 v -7.756035 h 11.16869 v 7.756035 z m 7.90495,25.275985 V 35.62841 L 62.233557,49.075512 38.948079,62.522613 z m 39.564462,7.765963 h -11.16869 v -7.756035 h 11.16869 v 7.756035 z m 0,-11.014809 h -11.16869 v -7.756035 h 11.16869 v 7.756035 z m 0,-11.012328 h -11.16869 v -7.756035 h 11.16869 v 7.756035 z m 0,-11.014811 h -11.16869 v -7.756035 h 11.16869 v 7.756035 z"
   id="path3070"
   inkscape:connector-curvature="0" />
</svg>