<?xml version="1.0" encoding="UTF-8" standalone="no"?>
<!-- Generator: Adobe Illustrator 15.0.2, SVG Export Plug-In . SVG Version: 6.00 Build 0)  -->

<svg
   xmlns:dc="http://purl.org/dc/elements/1.1/"
   xmlns:cc="http://creativecommons.org/ns#"
   xmlns:rdf="http://www.w3.org/1999/02/22-rdf-syntax-ns#"
   xmlns:svg="http://www.w3.org/2000/svg"
   xmlns="http://www.w3.org/2000/svg"
   xmlns:sodipodi="http://sodipodi.sourceforge.net/DTD/sodipodi-0.dtd"
   xmlns:inkscape="http://www.inkscape.org/namespaces/inkscape"
   version="1.1"
   id="Ebene_1"
   x="0px"
   y="0px"
   width="100px"
   height="100px"
   viewBox="0 0 100 100"
   enable-background="new 0 0 100 100"
   xml:space="preserve"
   inkscape:version="0.48.2 r9819"
   sodipodi:docname="win.svg"><metadata
   id="metadata3076"><rdf:RDF><cc:Work
       rdf:about=""><dc:format>image/svg+xml</dc:format><dc:type
         rdf:resource="http://purl.org/dc/dcmitype/StillImage" /><dc:title /></cc:Work></rdf:RDF></metadata><defs
   id="defs3074" /><sodipodi:namedview
   pagecolor="#ffffff"
   bordercolor="#666666"
   borderopacity="1"
   objecttolerance="10"
   gridtolerance="10"
   guidetolerance="10"
   inkscape:pageopacity="0"
   inkscape:pageshadow="2"
   inkscape:window-width="791"
   inkscape:window-height="426"
   id="namedview3072"
   showgrid="false"
   inkscape:zoom="2.36"
   inkscape:cx="3.3898305"
   inkscape:cy="50"
   inkscape:window-x="88"
   inkscape:window-y="88"
   inkscape:window-maximized="0"
   inkscape:current-layer="Ebene_1" />
<circle
   cx="50"
   cy="50"
   r="50"
   id="circle3068"
   fill="#B2B2B2" />
<path
   d="m 49.613076,34.15713 c -8.277916,0 -14.982077,7.144511 -14.982077,15.966147 0,8.815551 6.704161,15.964119 14.982077,15.964119 8.270304,0 14.978269,-7.148568 14.978269,-15.964119 0.0019,-8.821636 -6.704159,-15.966147 -14.978269,-15.966147 z m 0,27.876369 c -6.173233,-0.01622 -11.162818,-5.333541 -11.178042,-11.908194 0.01331,-6.576682 5.004809,-11.896026 11.178042,-11.91225 6.169426,0.01622 11.15901,5.335568 11.172331,11.91225 -0.01331,6.574653 -5.002905,11.891971 -11.172331,11.908194 z m 0,-28.945105 c 1.052342,0 1.902968,-0.908526 1.902968,-2.02999 v -9.837645 c -0.0038,-1.121464 -0.85253,-2.027962 -1.902968,-2.027962 -1.052342,0 -1.904873,0.910555 -1.90297,2.032019 v 9.835616 c 0,1.117407 0.850628,2.027962 1.90297,2.027962 z m 6.114239,1.293839 c 0.237872,0.107482 0.485257,0.154125 0.726935,0.156154 0.74977,0 1.455771,-0.472515 1.760246,-1.253281 l 3.531911,-9.091354 c 0.399623,-1.036288 -0.05899,-2.220619 -1.029506,-2.648519 -0.972418,-0.427899 -2.085655,0.06286 -2.489084,1.097128 l -3.530008,9.093382 c -0.401526,1.034262 0.05899,2.220619 1.029506,2.64649 z m 5.185592,3.692921 c 0.371078,0.393423 0.858239,0.594192 1.345399,0.594192 0.48716,0 0.97432,-0.19874 1.345399,-0.594192 L 70.13089,31.11316 c 0.74406,-0.790906 0.742158,-2.074606 0,-2.869568 -0.745965,-0.790905 -1.950545,-0.790905 -2.692702,0.0041 l -6.525281,6.957937 c -0.744061,0.792934 -0.744061,2.076634 0,2.869568 z m 3.469113,5.524169 c 0.300669,0.780764 1.010476,1.251252 1.756441,1.251252 0.241675,0 0.489062,-0.0507 0.728837,-0.158181 L 75.3926,40.926468 c 0.972416,-0.4279 1.432935,-1.616285 1.029505,-2.650546 -0.403429,-1.03426 -1.514762,-1.525029 -2.48718,-1.095099 l -8.527205,3.765925 c -0.970515,0.429927 -1.42913,1.618315 -1.0257,2.652575 z m 12.348366,4.483824 -9.231302,0.0021 c -1.050441,0 -1.90297,0.908528 -1.899165,2.02999 0,1.121464 0.850628,2.025935 1.899165,2.025935 l 9.233206,-0.0041 c 1.052341,0 1.901066,-0.910555 1.901066,-2.027962 0,-1.121463 -0.85253,-2.02999 -1.90297,-2.025935 z M 75.402114,59.293723 66.873006,55.53388 c -0.97432,-0.429928 -2.087556,0.06084 -2.487181,1.097129 -0.401526,1.036288 0.05899,2.222646 1.029507,2.652573 l 8.529108,3.759842 c 0.239775,0.103427 0.487159,0.152097 0.728837,0.152097 0.747866,0 1.455772,-0.470486 1.760246,-1.251253 0.399624,-1.036288 -0.06279,-2.224674 -1.031409,-2.650545 z m -11.786991,2.865509 c -0.744061,-0.792932 -1.946737,-0.792932 -2.690799,0.0021 -0.74406,0.790906 -0.742157,2.072578 0,2.865511 l 6.534796,6.953883 c 0.37108,0.395452 0.856337,0.594192 1.343498,0.594192 0.487159,0 0.976222,-0.19874 1.347302,-0.594192 0.74406,-0.794961 0.740254,-2.078661 0,-2.869567 l -6.534797,-6.951867 z m -5.387306,4.792076 C 57.82629,65.91502 56.713054,65.42628 55.740636,65.854181 c -0.970515,0.429928 -1.431033,1.616285 -1.027603,2.652573 l 3.539523,9.085271 c 0.302571,0.780767 1.010476,1.251253 1.760246,1.251253 0.243581,0 0.490966,-0.04867 0.728838,-0.154125 0.972416,-0.427899 1.431033,-1.616285 1.027603,-2.654602 l -3.541426,-9.083243 z m -8.595711,0.208879 c -1.052343,0 -1.90297,0.908527 -1.90297,2.027963 l 0.0076,9.837644 c 0,1.121464 0.854433,2.025934 1.902968,2.025934 1.052343,0 1.90297,-0.908526 1.899165,-2.027961 l -0.0057,-9.839674 c 0,-1.115379 -0.854434,-2.025934 -1.901067,-2.023906 z m -6.11995,-1.289783 c -0.970514,-0.425872 -2.081848,0.06287 -2.485278,1.101183 l -3.524299,9.091355 c -0.399623,1.036289 0.0628,2.222646 1.033312,2.650548 0.237872,0.105453 0.483354,0.154125 0.726935,0.154125 0.745964,0 1.455772,-0.474545 1.758343,-1.255309 l 3.526202,-9.095411 c 0.401527,-1.034262 -0.0628,-2.218591 -1.035215,-2.646491 z m -5.187494,-3.684807 c -0.745964,-0.792934 -1.950543,-0.788877 -2.692701,0.0041 l -6.519573,6.961995 c -0.744061,0.794961 -0.740254,2.074604 0.0038,2.869566 0.371079,0.393425 0.856336,0.592166 1.343497,0.592166 0.489062,0 0.976223,-0.198741 1.347302,-0.594194 l 6.521475,-6.964022 c 0.740256,-0.792933 0.740256,-2.076634 -0.0038,-2.869567 z M 34.853646,56.667511 C 34.448313,55.635278 33.33698,55.144512 32.366465,55.572412 l -8.523399,3.774037 c -0.972417,0.429928 -1.431033,1.618315 -1.027603,2.652575 0.304475,0.780765 1.010477,1.249225 1.758344,1.249225 0.241677,0 0.490966,-0.04867 0.728837,-0.154125 l 8.523399,-3.774038 c 0.96861,-0.433984 1.42913,-1.620341 1.027603,-2.652575 z m -1.229318,-6.513815 c 0,-1.121462 -0.850627,-2.025934 -1.902969,-2.025934 l -9.231303,0.01216 c -1.052343,0 -1.904873,0.908528 -1.901067,2.02999 0.0019,1.117407 0.854433,2.027962 1.90297,2.023907 l 9.233206,-0.01216 c 1.050438,0 1.90297,-0.912583 1.899163,-2.027962 z m -9.811709,-9.172473 8.534816,3.751731 c 0.237871,0.107482 0.483355,0.154125 0.725032,0.154125 0.747867,0 1.457674,-0.470488 1.760246,-1.25328 0.40343,-1.03629 -0.06089,-2.224676 -1.035215,-2.648519 l -8.531011,-3.751731 c -0.972417,-0.425871 -2.083751,0.06489 -2.485277,1.099155 -0.40343,1.036289 0.06279,2.218592 1.031409,2.648519 z m 11.785088,-2.87565 c 0.371079,0.391396 0.854433,0.590138 1.341593,0.590138 0.487161,0 0.976224,-0.198742 1.349206,-0.598251 0.74406,-0.788877 0.740254,-2.074605 -0.0076,-2.867537 L 31.74611,28.286179 c -0.742159,-0.790905 -1.950544,-0.786849 -2.690799,0.0062 -0.744061,0.790904 -0.740255,2.076632 0.0038,2.867537 l 6.538602,6.945771 z m 5.379694,-4.800187 c 0.304475,0.778738 1.01238,1.247196 1.756441,1.247196 0.24358,0 0.490966,-0.0507 0.73074,-0.156152 0.970514,-0.429929 1.432936,-1.618314 1.027603,-2.650546 l -3.547134,-9.083243 c -0.40343,-1.034261 -1.518569,-1.523001 -2.489084,-1.093073 -0.970514,0.431957 -1.42913,1.620343 -1.0257,2.652575 l 3.547134,9.083243 z"
   id="path3070"
   inkscape:connector-curvature="0" />
</svg>